{
	"patcher" : 	{
		"fileversion" : 1,
		"appversion" : 		{
			"major" : 8,
			"minor" : 2,
			"revision" : 2,
			"architecture" : "x64",
			"modernui" : 1
		}
,
		"classnamespace" : "box",
		"rect" : [ 34.0, 94.0, 1076.0, 854.0 ],
		"bglocked" : 0,
		"openinpresentation" : 0,
		"default_fontsize" : 12.0,
		"default_fontface" : 0,
		"default_fontname" : "Arial",
		"gridonopen" : 1,
		"gridsize" : [ 15.0, 15.0 ],
		"gridsnaponopen" : 1,
		"objectsnaponopen" : 1,
		"statusbarvisible" : 2,
		"toolbarvisible" : 1,
		"lefttoolbarpinned" : 0,
		"toptoolbarpinned" : 0,
		"righttoolbarpinned" : 0,
		"bottomtoolbarpinned" : 0,
		"toolbars_unpinned_last_save" : 0,
		"tallnewobj" : 0,
		"boxanimatetime" : 200,
		"enablehscroll" : 1,
		"enablevscroll" : 1,
		"devicewidth" : 0.0,
		"description" : "",
		"digest" : "",
		"tags" : "",
		"style" : "",
		"subpatcher_template" : "",
		"assistshowspatchername" : 0,
		"boxes" : [ 			{
				"box" : 				{
					"id" : "obj-17",
					"maxclass" : "newobj",
					"numinlets" : 1,
					"numoutlets" : 2,
					"outlettype" : [ "", "bang" ],
					"patching_rect" : [ 698.0, 460.0, 31.0, 22.0 ],
					"text" : "t s b",
					"varname" : "ignore[4]"
				}

			}
, 			{
				"box" : 				{
					"id" : "obj-14",
					"maxclass" : "message",
					"numinlets" : 2,
					"numoutlets" : 1,
					"outlettype" : [ "" ],
					"patching_rect" : [ 710.0, 496.0, 34.0, 22.0 ],
					"text" : "write",
					"varname" : "ignore[3]"
				}

			}
, 			{
				"box" : 				{
					"id" : "obj-13",
					"maxclass" : "newobj",
					"numinlets" : 1,
					"numoutlets" : 3,
					"outlettype" : [ "", "bang", "int" ],
					"patching_rect" : [ 702.5, 533.0, 63.0, 22.0 ],
					"text" : "text test.js",
					"varname" : "ignore[2]"
				}

			}
, 			{
				"box" : 				{
					"id" : "obj-6",
					"maxclass" : "message",
					"numinlets" : 2,
					"numoutlets" : 1,
					"outlettype" : [ "" ],
					"patching_rect" : [ 698.0, 380.0, 116.0, 22.0 ],
					"text" : "convert_patch_to_js",
					"varname" : "ignore"
				}

			}
, 			{
				"box" : 				{
					"id" : "obj-1",
					"maxclass" : "newobj",
					"numinlets" : 1,
					"numoutlets" : 1,
					"outlettype" : [ "" ],
					"patching_rect" : [ 698.0, 407.0, 72.0, 22.0 ],
					"saved_object_attributes" : 					{
						"filename" : "convert.js",
						"parameter_enable" : 0
					}
,
					"text" : "js convert.js",
					"varname" : "ignore[1]"
				}

			}
, 			{
				"box" : 				{
					"id" : "obj-1308",
					"maxclass" : "newobj",
					"numinlets" : 2,
					"numoutlets" : 1,
					"outlettype" : [ "signal" ],
					"patching_rect" : [ 510.0, 439.0, 100.0, 22.0 ],
					"text" : "cycle~"
				}

			}
, 			{
				"box" : 				{
					"id" : "obj-1310",
					"maxclass" : "ezadc~",
					"numinlets" : 1,
					"numoutlets" : 2,
					"outlettype" : [ "signal", "signal" ],
					"patching_rect" : [ 476.0, 183.0, 45.0, 45.0 ]
				}

			}
, 			{
				"box" : 				{
					"id" : "obj-1312",
					"maxclass" : "number",
					"numinlets" : 1,
					"numoutlets" : 2,
					"outlettype" : [ "", "bang" ],
					"parameter_enable" : 0,
					"patching_rect" : [ 560.0, 350.0, 50.0, 22.0 ]
				}

			}
, 			{
				"box" : 				{
					"id" : "obj-1314",
					"maxclass" : "number",
					"numinlets" : 1,
					"numoutlets" : 2,
					"outlettype" : [ "", "bang" ],
					"parameter_enable" : 0,
					"patching_rect" : [ 413.0, 266.0, 50.0, 22.0 ]
				}

			}
, 			{
				"box" : 				{
					"id" : "obj-1315",
					"maxclass" : "newobj",
					"numinlets" : 2,
					"numoutlets" : 1,
					"outlettype" : [ "signal" ],
					"patching_rect" : [ 482.0, 500.0, 100.0, 22.0 ],
					"text" : "times~"
				}

			}
, 			{
				"box" : 				{
					"id" : "obj-1317",
					"maxclass" : "ezadc~",
					"numinlets" : 1,
					"numoutlets" : 2,
					"outlettype" : [ "signal", "signal" ],
					"patching_rect" : [ 348.0, 402.0, 45.0, 45.0 ]
				}

			}
, 			{
				"box" : 				{
					"id" : "obj-1319",
					"maxclass" : "ezdac~",
					"numinlets" : 2,
					"numoutlets" : 0,
					"patching_rect" : [ 443.0, 575.0, 45.0, 45.0 ]
				}

			}
 ],
		"lines" : [ 			{
				"patchline" : 				{
					"destination" : [ "obj-1315", 0 ],
					"source" : [ "obj-1308", 0 ]
				}

			}
, 			{
				"patchline" : 				{
					"destination" : [ "obj-1308", 0 ],
					"order" : 0,
					"source" : [ "obj-1310", 1 ]
				}

			}
, 			{
				"patchline" : 				{
					"destination" : [ "obj-1308", 0 ],
					"order" : 0,
					"source" : [ "obj-1310", 0 ]
				}

			}
, 			{
				"patchline" : 				{
					"destination" : [ "obj-1315", 0 ],
					"order" : 1,
					"source" : [ "obj-1310", 1 ]
				}

			}
, 			{
				"patchline" : 				{
					"destination" : [ "obj-1315", 0 ],
					"order" : 1,
					"source" : [ "obj-1310", 0 ]
				}

			}
, 			{
				"patchline" : 				{
					"destination" : [ "obj-1317", 0 ],
					"order" : 2,
					"source" : [ "obj-1310", 1 ]
				}

			}
, 			{
				"patchline" : 				{
					"destination" : [ "obj-1308", 1 ],
					"source" : [ "obj-1312", 0 ]
				}

			}
, 			{
				"patchline" : 				{
					"destination" : [ "obj-1308", 0 ],
					"source" : [ "obj-1314", 0 ]
				}

			}
, 			{
				"patchline" : 				{
					"destination" : [ "obj-1319", 1 ],
					"order" : 0,
					"source" : [ "obj-1315", 0 ]
				}

			}
, 			{
				"patchline" : 				{
					"destination" : [ "obj-1319", 0 ],
					"order" : 1,
					"source" : [ "obj-1315", 0 ]
				}

			}
, 			{
				"patchline" : 				{
					"destination" : [ "obj-1315", 0 ],
					"source" : [ "obj-1317", 1 ]
				}

			}
, 			{
				"patchline" : 				{
					"destination" : [ "obj-1315", 0 ],
					"source" : [ "obj-1317", 0 ]
				}

			}
, 			{
				"patchline" : 				{
					"destination" : [ "obj-13", 0 ],
					"source" : [ "obj-14", 0 ]
				}

			}
, 			{
				"patchline" : 				{
					"destination" : [ "obj-13", 0 ],
					"source" : [ "obj-17", 0 ]
				}

			}
, 			{
				"patchline" : 				{
					"destination" : [ "obj-14", 0 ],
					"source" : [ "obj-17", 1 ]
				}

			}
, 			{
				"patchline" : 				{
					"destination" : [ "obj-1", 0 ],
					"source" : [ "obj-6", 0 ]
				}

			}
 ],
		"dependency_cache" : [ 			{
				"name" : "convert.js",
				"bootpath" : "~/Documents/GitHub/javascript_in_max/convert_sketch_to_script",
				"patcherrelativepath" : ".",
				"type" : "TEXT",
				"implicit" : 1
			}
 ],
		"autosave" : 0
	}

}
